<?xml version="1.0" standalone="no"?>
<!DOCTYPE svg PUBLIC "-//W3C//DTD SVG 20010904//EN"
 "http://www.w3.org/TR/2001/REC-SVG-20010904/DTD/svg10.dtd">
<svg version="1.0" xmlns="http://www.w3.org/2000/svg"
 width="960.000000pt" height="821.000000pt" viewBox="0 0 960.000000 821.000000"
 preserveAspectRatio="xMidYMid meet">

<g transform="translate(0.000000,821.000000) scale(0.100000,-0.100000)"
fill="#000000" stroke="none">
<path d="M4765 8190 c-146 -11 -215 -21 -215 -31 0 -9 -60 -560 -78 -718 -7
-61 -9 -65 -37 -72 -16 -4 -83 -19 -147 -34 -65 -14 -173 -44 -240 -66 l-123
-40 -30 33 c-16 19 -88 103 -160 187 -180 213 -253 299 -300 354 l-40 46 -111
-53 c-170 -82 -303 -158 -489 -282 -210 -140 -209 -139 -202 -161 3 -10 38
-103 78 -208 39 -104 89 -235 109 -290 21 -55 50 -132 65 -172 l28 -72 -135
-133 c-74 -73 -164 -166 -199 -207 l-65 -74 -124 53 c-69 28 -165 69 -215 90
-280 118 -384 160 -392 160 -11 0 -174 -246 -247 -374 -66 -113 -166 -315
-166 -333 0 -6 51 -67 113 -135 61 -69 190 -211 286 -316 l173 -192 434 0 433
0 28 58 c350 711 1015 1218 1788 1366 175 33 266 41 475 41 438 0 800 -89
1180 -288 444 -233 832 -624 1060 -1069 l55 -108 410 0 409 0 33 36 c18 20 70
78 116 128 46 50 105 116 132 146 53 61 191 211 272 299 29 31 53 61 53 66 0
51 -365 666 -405 681 -15 6 -71 -16 -569 -226 l-170 -71 -54 63 c-75 86 -318
325 -375 368 -25 19 -47 40 -47 47 0 7 39 115 86 240 47 125 110 291 139 368
29 77 51 143 48 147 -8 14 -227 154 -348 223 -66 38 -183 99 -260 137 l-140
68 -73 -78 c-41 -42 -172 -179 -293 -304 l-220 -227 -47 15 c-97 31 -311 83
-410 101 -87 15 -103 21 -107 38 -2 11 -10 186 -19 389 -8 202 -17 370 -19
372 -1 2 -64 8 -138 14 -146 11 -451 11 -594 0z"/>
<path d="M4856 6288 c-400 -35 -836 -210 -1160 -466 -350 -276 -635 -703 -752
-1124 l-15 -58 -435 0 -435 0 -130 105 -129 105 -175 0 -175 0 0 105 0 105
-305 0 -305 0 0 -305 0 -305 305 0 305 0 0 105 0 105 140 0 141 0 130 -105
131 -105 450 0 450 0 -6 -27 c-5 -25 -26 -239 -26 -270 0 -10 -226 -13 -1095
-13 l-1095 0 0 130 0 130 -330 0 -330 0 0 -335 0 -335 330 0 330 0 0 110 0
110 1098 0 1098 0 13 -107 c7 -60 15 -125 18 -145 l5 -38 -455 0 -456 0 -130
-105 -130 -105 -141 0 -140 0 0 110 0 110 -305 0 -305 0 0 -310 0 -310 305 0
305 0 0 105 0 105 173 0 172 0 130 105 130 104 453 1 c400 0 452 -2 452 -15 0
-31 93 -262 147 -365 346 -663 999 -1105 1742 -1180 646 -64 1297 168 1761
630 175 174 299 345 416 575 l71 140 242 5 c240 5 242 5 219 24 -13 11 -80 73
-150 138 -124 115 -129 118 -173 118 -39 0 -46 3 -41 18 16 54 47 230 52 305
l7 87 343 0 343 0 10 38 c16 58 51 225 51 239 0 10 -74 13 -373 13 l-373 0 -3
53 c-2 49 -26 216 -38 265 l-5 22 434 0 c366 0 437 2 454 15 10 8 35 14 54 14
19 0 44 -6 54 -14 17 -13 84 -15 425 -15 l406 0 24 38 c14 20 33 51 44 69 l18
32 -72 47 -73 47 34 28 34 29 -960 0 -960 0 -47 108 c-74 171 -200 377 -315
516 -129 156 -334 339 -504 450 -407 265 -908 388 -1402 344z m379 -188 c256
-24 488 -90 710 -199 413 -205 720 -513 921 -923 249 -511 270 -1098 59 -1628
-235 -590 -750 -1040 -1371 -1199 -172 -44 -270 -55 -494 -55 -181 0 -234 3
-334 22 -229 43 -384 95 -577 193 -518 263 -889 727 -1034 1294 -46 181 -59
292 -59 500 0 550 209 1044 601 1426 125 121 222 198 350 278 363 225 807 330
1228 291z m-3975 -1345 l0 -115 -115 0 -115 0 0 115 0 115 115 0 115 0 0 -115z
m-780 -690 l0 -145 -140 0 -140 0 0 145 0 145 140 0 140 0 0 -145z m780 -705
l0 -120 -115 0 -115 0 0 120 0 120 115 0 115 0 0 -120z"/>
<path d="M3700 5250 l0 -100 220 0 220 0 0 -80 0 -80 115 0 115 0 0 80 0 80
985 0 985 0 0 100 0 100 -1320 0 -1320 0 0 -100z"/>
<path d="M5330 4755 l0 -235 23 -5 c53 -12 198 -31 202 -27 3 3 5 45 5 94 0
101 2 103 78 64 135 -68 298 -240 377 -397 73 -144 95 -286 102 -666 5 -253
-8 -658 -23 -735 l-6 -28 105 0 105 0 6 28 c26 126 42 661 27 894 -20 307 -57
480 -133 632 -80 161 -172 272 -312 379 l-79 60 64 56 c35 31 79 71 99 88 l35
32 -144 1 -145 0 -62 -64 c-90 -90 -94 -91 -94 -6 l0 70 -115 0 -115 0 0 -235z"/>
<path d="M5064 4425 c-67 -14 -212 -64 -219 -75 -3 -5 43 -170 50 -178 2 -2
45 11 97 30 87 30 102 33 223 33 110 0 139 -3 189 -22 70 -27 170 -90 213
-135 74 -79 143 -211 143 -273 l0 -25 -149 0 c-82 0 -163 -3 -180 -6 l-31 -6
0 -93 0 -93 184 -4 c101 -2 187 -6 191 -10 11 -11 -23 -126 -52 -176 -15 -26
-54 -74 -88 -107 -167 -166 -440 -216 -689 -128 -37 14 -72 21 -76 16 -8 -8
-50 -151 -50 -170 0 -13 91 -47 185 -69 98 -24 317 -24 409 -1 280 70 496 266
576 522 28 90 37 248 20 352 -50 319 -298 566 -624 623 -81 14 -248 11 -322
-5z"/>
<path d="M9390 4863 c0 -11 -50 -246 -55 -261 -3 -9 -16 -5 -46 13 -39 25 -41
26 -55 8 -31 -41 -23 -43 171 -43 l185 0 0 145 0 145 -100 0 c-55 0 -100 -3
-100 -7z"/>
<path d="M8156 4228 c-10 -31 -56 -249 -56 -263 0 -13 53 -15 465 -15 l465 0
0 145 c0 116 -3 145 -14 145 -7 0 -46 -53 -85 -119 -40 -65 -81 -128 -92 -140
-39 -42 -64 -30 -252 119 l-176 140 -126 0 c-92 0 -127 -3 -129 -12z"/>
<path d="M8660 4236 c0 -6 102 -86 109 -86 7 0 51 72 51 84 0 3 -36 6 -80 6
-44 0 -80 -2 -80 -4z"/>
<path d="M7525 3513 c17 -15 80 -73 141 -130 61 -57 115 -103 120 -103 5 0 20
48 33 108 12 59 25 117 28 130 l5 22 -178 0 -179 0 30 -27z"/>
<path d="M7991 3483 c-6 -32 -20 -95 -30 -140 l-19 -83 299 0 299 0 0 140 0
140 -269 0 -268 0 -12 -57z"/>
<path d="M1110 2763 c0 -5 14 -51 31 -103 132 -405 352 -798 622 -1113 271
-316 672 -646 1100 -907 l88 -53 588 587 c518 517 586 589 567 596 -41 15
-202 82 -261 108 -106 46 -378 187 -440 227 -264 173 -490 413 -591 628 l-18
37 -843 0 c-464 0 -843 -3 -843 -7z"/>
</g>
</svg>
